<?xml version="1.0" encoding="utf-8"?>
<!-- Generator: Adobe Illustrator 22.1.0, SVG Export Plug-In . SVG Version: 6.00 Build 0)  -->
<svg version="1.1" id="Layer_1" xmlns="http://www.w3.org/2000/svg" xmlns:xlink="http://www.w3.org/1999/xlink" x="0px" y="0px"
	 viewBox="0 0 220 155" style="enable-background:new 0 0 220 155;" xml:space="preserve">
<style type="text/css">
	.st0{fill:#C33427;}
	.st1{fill:#67C9D5;}
	.st2{fill:none;stroke:#293A3F;stroke-width:2;stroke-linecap:round;stroke-linejoin:round;stroke-miterlimit:10;}
	.st3{fill:none;stroke:#FFFFFF;stroke-width:2;stroke-linecap:round;stroke-linejoin:round;stroke-miterlimit:10;}
</style>
<rect class="st0" width="220" height="155"/>
<path class="st1" d="M141.6,102.3c5.4-6.8,8.6-15.5,8.6-24.8c0-22.2-18-40.2-40.2-40.2c-22.2,0-40.2,18-40.2,40.2
	c0,22.2,18,40.2,40.2,40.2c7.1,0,13.8-1.9,19.6-5.1l0,0l18.5,7.6L141.6,102.3L141.6,102.3z"/>
<path class="st2" d="M75.9,69.7C78.5,58.5,86.4,49.2,97.2,45"/>
<line class="st3" x1="110" y1="17.1" x2="110" y2="32.1"/>
<line class="st3" x1="49.6" y1="77.5" x2="64.6" y2="77.5"/>
<line class="st3" x1="66.2" y1="65.8" x2="57.9" y2="63.6"/>
<line class="st3" x1="70.7" y1="54.8" x2="57.7" y2="47.3"/>
<line class="st3" x1="77.9" y1="45.4" x2="71.9" y2="39.4"/>
<line class="st3" x1="87.3" y1="38.2" x2="79.8" y2="25.2"/>
<line class="st3" x1="98.3" y1="33.7" x2="96" y2="25.4"/>
<line class="st3" x1="121.7" y1="33.7" x2="123.9" y2="25.4"/>
<line class="st3" x1="140.2" y1="25.2" x2="132.7" y2="38.2"/>
<line class="st3" x1="148.1" y1="39.4" x2="142.1" y2="45.4"/>
<line class="st3" x1="149.3" y1="54.8" x2="162.3" y2="47.3"/>
<line class="st3" x1="153.8" y1="65.8" x2="162.1" y2="63.6"/>
<line class="st3" x1="155.4" y1="77.5" x2="170.4" y2="77.5"/>
<line class="st3" x1="153.8" y1="89.2" x2="162.1" y2="91.4"/>
<line class="st3" x1="149.3" y1="100.2" x2="162.3" y2="107.7"/>
<line class="st3" x1="134.1" y1="119.2" x2="140.2" y2="129.8"/>
<line class="st3" x1="121.7" y1="121.3" x2="123.9" y2="129.6"/>
<line class="st3" x1="110" y1="122.9" x2="110" y2="137.9"/>
<line class="st3" x1="98.3" y1="121.3" x2="96" y2="129.6"/>
<line class="st3" x1="87.3" y1="116.8" x2="79.8" y2="129.8"/>
<line class="st3" x1="77.9" y1="109.6" x2="71.9" y2="115.6"/>
<line class="st3" x1="70.7" y1="100.2" x2="57.7" y2="107.7"/>
<line class="st3" x1="66.2" y1="89.2" x2="57.9" y2="91.4"/>
<path class="st2" d="M141.6,102.3c5.4-6.8,8.6-15.5,8.6-24.8c0-22.2-18-40.2-40.2-40.2c-22.2,0-40.2,18-40.2,40.2
	c0,22.2,18,40.2,40.2,40.2c7.1,0,13.8-1.9,19.6-5.1l0,0l18.5,7.6L141.6,102.3L141.6,102.3z"/>
<g>
	<path class="st2" d="M96.2,71.2c0-7.6,6.2-13.8,13.8-13.8s13.8,6.2,13.8,13.8S117.6,85,110,85v9.3"/>
	<line class="st2" x1="110" y1="98.8" x2="110" y2="100"/>
</g>
</svg>
