<?xml version="1.0" encoding="utf-8"?>
<!-- Generator: Adobe Illustrator 22.1.0, SVG Export Plug-In . SVG Version: 6.00 Build 0)  -->
<svg version="1.1" id="Layer_1" xmlns="http://www.w3.org/2000/svg" xmlns:xlink="http://www.w3.org/1999/xlink" x="0px" y="0px"
	 viewBox="0 0 220 155" style="enable-background:new 0 0 220 155;" xml:space="preserve">
<style type="text/css">
	.st0{fill:#C33427;}
	.st1{fill:#67C9D5;}
	.st2{fill:#ECDB6F;}
	.st3{fill:none;stroke:#293A3F;stroke-width:2;stroke-linecap:round;stroke-linejoin:round;stroke-miterlimit:10;}
	.st4{fill:none;stroke:#FFFFFF;stroke-width:2;stroke-linecap:round;stroke-linejoin:round;stroke-miterlimit:10;}
</style>
<rect x="0" class="st0" width="220" height="155"/>
<g>
	<path class="st1" d="M70.1,88.5c-5.1,0-12.4,3.3-12.4,6.1c0,0,0,2.7,0,3.6c0,1.1,0.6,1.8,1.8,1.8h10.6h10.6c1.2,0,1.8-0.7,1.8-1.8
		c0-0.9,0-3.6,0-3.6C82.6,91.8,75.3,88.5,70.1,88.5z"/>
	<path class="st1" d="M149.9,88.5c-5.1,0-12.4,3.3-12.4,6.1c0,0,0,2.7,0,3.6c0,1.1,0.6,1.8,1.8,1.8h10.6h10.6c1.2,0,1.8-0.7,1.8-1.8
		c0-0.9,0-3.6,0-3.6C162.3,91.8,155,88.5,149.9,88.5z"/>
	<path class="st1" d="M110,43.5c-5.1,0-12.4,3.3-12.4,6.1c0,0,0,2.7,0,3.6c0,1.1,0.6,1.8,1.8,1.8H110h10.6c1.2,0,1.8-0.7,1.8-1.8
		c0-0.9,0-3.6,0-3.6C122.4,46.8,115.1,43.5,110,43.5z"/>
	<path class="st1" d="M110,123.4c-5.1,0-12.4,3.3-12.4,6.1c0,0,0,2.7,0,3.6c0,1.1,0.6,1.8,1.8,1.8H110h10.6c1.2,0,1.8-0.7,1.8-1.8
		c0-0.9,0-3.6,0-3.6C122.4,126.8,115.1,123.4,110,123.4z"/>
	<path class="st2" d="M70.1,84.9L70.1,84.9c-4.4,0-8-3.6-8-8v-4c0-4.4,3.6-8,8-8h0c4.4,0,8,3.6,8,8v4C78.1,81.3,74.5,84.9,70.1,84.9
		z"/>
	<path class="st2" d="M149.9,84.9L149.9,84.9c-4.4,0-8-3.6-8-8v-4c0-4.4,3.6-8,8-8h0c4.4,0,8,3.6,8,8v4
		C157.8,81.3,154.2,84.9,149.9,84.9z"/>
	<path class="st2" d="M110,39.9L110,39.9c-4.4,0-8-3.6-8-8v-4c0-4.4,3.6-8,8-8h0c4.4,0,8,3.6,8,8v4C118,36.3,114.4,39.9,110,39.9z"
		/>
	<path class="st2" d="M110,119.9L110,119.9c-4.4,0-8-3.6-8-8v-4c0-4.4,3.6-8,8-8h0c4.4,0,8,3.6,8,8v4
		C118,116.3,114.4,119.9,110,119.9z"/>
	<path class="st3" d="M70.1,84.9L70.1,84.9c-4.4,0-8-3.6-8-8v-4c0-4.4,3.6-8,8-8h0c4.4,0,8,3.6,8,8v4C78.1,81.3,74.5,84.9,70.1,84.9
		z"/>
	<path class="st3" d="M70.1,88.5c-5.1,0-12.4,3.3-12.4,6.1c0,0,0,2.7,0,3.6c0,1.1,0.6,1.8,1.8,1.8h10.6h10.6c1.2,0,1.8-0.7,1.8-1.8
		c0-0.9,0-3.6,0-3.6C82.6,91.8,75.3,88.5,70.1,88.5z"/>
	<path class="st3" d="M149.9,84.9L149.9,84.9c-4.4,0-8-3.6-8-8v-4c0-4.4,3.6-8,8-8h0c4.4,0,8,3.6,8,8v4
		C157.8,81.3,154.2,84.9,149.9,84.9z"/>
	<path class="st3" d="M149.9,88.5c-5.1,0-12.4,3.3-12.4,6.1c0,0,0,2.7,0,3.6c0,1.1,0.6,1.8,1.8,1.8h10.6h10.6c1.2,0,1.8-0.7,1.8-1.8
		c0-0.9,0-3.6,0-3.6C162.3,91.8,155,88.5,149.9,88.5z"/>
	<path class="st4" d="M77.5,59.5c3.5-4.9,8.1-9,13.4-11.9"/>
	<path class="st4" d="M97.6,120.4c-7-2.3-13.1-6.5-17.8-11.9"/>
	<path class="st3" d="M110,39.9L110,39.9c-4.4,0-8-3.6-8-8v-4c0-4.4,3.6-8,8-8h0c4.4,0,8,3.6,8,8v4C118,36.3,114.4,39.9,110,39.9z"
		/>
	<path class="st3" d="M110,43.5c-5.1,0-12.4,3.3-12.4,6.1c0,0,0,2.7,0,3.6c0,1.1,0.6,1.8,1.8,1.8H110h10.6c1.2,0,1.8-0.7,1.8-1.8
		c0-0.9,0-3.6,0-3.6C122.4,46.8,115.1,43.5,110,43.5z"/>
	<path class="st3" d="M110,119.9L110,119.9c-4.4,0-8-3.6-8-8v-4c0-4.4,3.6-8,8-8h0c4.4,0,8,3.6,8,8v4
		C118,116.3,114.4,119.9,110,119.9z"/>
	<path class="st3" d="M110,123.4c-5.1,0-12.4,3.3-12.4,6.1c0,0,0,2.7,0,3.6c0,1.1,0.6,1.8,1.8,1.8H110h10.6c1.2,0,1.8-0.7,1.8-1.8
		c0-0.9,0-3.6,0-3.6C122.4,126.8,115.1,123.4,110,123.4z"/>
	<path class="st4" d="M141.7,59.5c-3.5-4.9-8.1-9-13.4-11.9"/>
	<path class="st4" d="M121.6,120.4c7-2.3,13.1-6.5,17.8-11.9"/>
	<g>
		<polygon class="st2" points="110,66.6 114.6,75.8 124.8,77.3 117.4,84.5 119.1,94.7 110,89.9 100.9,94.7 102.6,84.5 95.2,77.3 
			105.4,75.8 		"/>
		<polygon class="st3" points="110,66.6 114.6,75.8 124.8,77.3 117.4,84.5 119.1,94.7 110,89.9 100.9,94.7 102.6,84.5 95.2,77.3 
			105.4,75.8 		"/>
		<polyline class="st3" points="99,85.3 91,89.5 92.6,80.7 86.1,74.4 95,73.1 99,65 103,73.1 		"/>
		<polyline class="st3" points="121,85.3 129,89.5 127.4,80.7 133.9,74.4 125,73.1 121,65 117,73.1 		"/>
	</g>
</g>
</svg>
