<?xml version="1.0" encoding="utf-8"?>
<!-- Generator: Adobe Illustrator 23.0.1, SVG Export Plug-In . SVG Version: 6.00 Build 0)  -->
<svg version="1.1" id="Layer_1" xmlns="http://www.w3.org/2000/svg" xmlns:xlink="http://www.w3.org/1999/xlink" x="0px" y="0px"
	 viewBox="0 0 220 155" style="enable-background:new 0 0 220 155;" xml:space="preserve">
<style type="text/css">
	.st0{fill:#C33427;}
	.st1{fill:#FFFFFF;}
	.st2{fill:#67C9D5;}
	.st3{fill:#ECDB6F;}
	.st4{fill:none;stroke:#293A3F;stroke-width:2;stroke-linecap:round;stroke-linejoin:round;stroke-miterlimit:10;}
	.st5{fill:none;stroke:#FFFFFF;stroke-width:2;stroke-linecap:round;stroke-linejoin:round;stroke-miterlimit:10;}
</style>
<rect class="st0" width="220" height="155"/>
<path class="st1" d="M61.6,78c22.7,38.2,74,38.2,96.7,0c0.2-0.3,0.2-0.7,0-1c-22.7-38.2-74-38.2-96.7,0C61.5,77.3,61.5,77.7,61.6,78
	z"/>
<circle class="st2" cx="110" cy="77.5" r="28.6"/>
<circle class="st3" cx="109.4" cy="78.6" r="9.6"/>
<path class="st4" d="M61.6,78c22.7,38.2,74,38.2,96.7,0c0.2-0.3,0.2-0.7,0-1c-22.7-38.2-74-38.2-96.7,0C61.5,77.3,61.5,77.7,61.6,78
	z"/>
<circle class="st4" cx="110" cy="77.5" r="28.6"/>
<circle class="st4" cx="109.4" cy="78.6" r="9.6"/>
<line class="st5" x1="110" y1="27.8" x2="110" y2="36.1"/>
<line class="st5" x1="134.9" y1="34.4" x2="130.7" y2="41.6"/>
<line class="st5" x1="153.1" y1="52.6" x2="145.9" y2="56.8"/>
<line class="st5" x1="85.1" y1="34.4" x2="89.3" y2="41.6"/>
<line class="st5" x1="66.9" y1="52.6" x2="74.1" y2="56.8"/>
<line class="st5" x1="74.1" y1="98.2" x2="66.9" y2="102.4"/>
<line class="st5" x1="145.9" y1="98.2" x2="153.1" y2="102.4"/>
<line class="st5" x1="130.7" y1="113.4" x2="134.9" y2="120.6"/>
<line class="st5" x1="110" y1="118.9" x2="110" y2="127.2"/>
<line class="st5" x1="89.3" y1="113.4" x2="85.1" y2="120.6"/>
</svg>
