<?xml version="1.0" encoding="utf-8"?>
<!-- Generator: Adobe Illustrator 22.1.0, SVG Export Plug-In . SVG Version: 6.00 Build 0)  -->
<svg version="1.1" id="Layer_1" xmlns="http://www.w3.org/2000/svg" xmlns:xlink="http://www.w3.org/1999/xlink" x="0px" y="0px"
	 viewBox="0 0 220 155" style="enable-background:new 0 0 220 155;" xml:space="preserve">
<style type="text/css">
	.st0{fill:#0D5187;}
	.st1{fill:#F0E8DD;}
	.st2{fill:none;stroke:#293A3F;stroke-width:2;stroke-linecap:round;stroke-linejoin:round;stroke-miterlimit:10;}
	.st3{fill:#EF816B;}
	.st4{fill:none;stroke:#FFFFFF;stroke-width:2;stroke-linecap:round;stroke-linejoin:round;stroke-miterlimit:10;}
</style>
<rect class="st0" width="220" height="155"/>
<path class="st1" d="M96.7,125.4v-16.5c-8-12.1-13.5-23.8-13.5-35.5c0-6.4,6-22.5,27.6-22.5c23.4,0,27.1,12.7,27.1,30.3
	c3.4,3,5.6,5.1,7.9,8.7c1.8,2.7,0.7,5.4-1.6,5.4h-4.6c0,0,0.8,7.5,0.8,12.2c0.1,4.4-1.6,6.5-5.4,6.5h-8.7v11.4"/>
<path class="st2" d="M96.7,125.4v-16.5c-8-12.1-13.5-23.8-13.5-35.5c0-6.4,6-22.5,27.6-22.5c23.4,0,27.1,12.7,27.1,30.3
	c3.4,3,5.6,5.1,7.9,8.7c1.8,2.7,0.7,5.4-1.6,5.4h-4.6c0,0,0.8,7.5,0.8,12.2c0.1,4.4-1.6,6.5-5.4,6.5h-8.7v11.4"/>
<line class="st2" x1="92.7" y1="125.4" x2="129.8" y2="125.4"/>
<g>
	<path class="st3" d="M128.9,66.6c-0.3-2.4-1.4-4.6-3.2-6.2c-1.9-1.8-4.4-2.8-7.1-2.8c-0.4,0-0.8,0-1.3,0.1c-2-1.5-4.5-2.4-7.1-2.4
		c-2.7,0-5.4,1-7.5,2.7c-3.1,0.2-6.1,1.5-8.4,3.6c-2.3,2.1-3.8,5-4.2,8.1c-1.2,1.5-1.8,3.3-1.8,5.1c0,4.4,3.5,8,7.8,8.2
		c2.2,1.5,4.8,2.3,7.5,2.3c3.4,0,6.6-1.2,9.1-3.5h8.6c1.2,0.7,2.6,1,4.1,1c4.7,0,8.5-3.8,8.5-8.5C134.1,70.9,132,67.9,128.9,66.6z"
		/>
	<path class="st2" d="M128.9,66.6c-0.3-2.4-1.4-4.6-3.2-6.2c-1.9-1.8-4.4-2.8-7.1-2.8c-0.4,0-0.8,0-1.3,0.1c-2-1.5-4.5-2.4-7.1-2.4
		c-2.7,0-5.4,1-7.5,2.7c-3.1,0.2-6.1,1.5-8.4,3.6c-2.3,2.1-3.8,5-4.2,8.1c-1.2,1.5-1.8,3.3-1.8,5.1c0,4.4,3.5,8,7.8,8.2
		c2.2,1.5,4.8,2.3,7.5,2.3c3.4,0,6.6-1.2,9.1-3.5h8.6c1.2,0.7,2.6,1,4.1,1c4.7,0,8.5-3.8,8.5-8.5C134.1,70.9,132,67.9,128.9,66.6z"
		/>
	<g>
		<g>
			<path class="st2" d="M127.6,73.1c-1.9,0-3.5,1.6-3.5,3.5"/>
		</g>
	</g>
	<g>
		<g>
			<path class="st2" d="M105.7,71.9c-2.3,0-4.2,1.9-4.2,4.2"/>
		</g>
	</g>
	<g>
		<g>
			<path class="st2" d="M117.1,68.9c-1.1-2.5-4.1-3.6-6.6-2.5"/>
		</g>
	</g>
	<path class="st2" d="M102.9,58c-2,1.9-2,4.3-0.8,5.7"/>
	<path class="st2" d="M117.4,57.6c-1.8,0-3.4,1.1-3.6,3.2"/>
	<path class="st2" d="M128.9,66.6c-2-1.1-4.4-0.6-5.5,0"/>
	<path class="st2" d="M96.3,83c-2.5-1.8-2.2-6.4,0.5-8.2"/>
	<path class="st2" d="M112.9,81.8c1.6-1.8,1.6-4.7,0-5.7"/>
	<path class="st2" d="M121.6,81.8c-1.6-0.9-3.3-1.8-3.3-3.5"/>
</g>
<g>
	<line class="st4" x1="78.6" y1="74" x2="70.4" y2="74"/>
	<line class="st4" x1="67.4" y1="74" x2="66.2" y2="74"/>
	<line class="st4" x1="63.2" y1="74" x2="61.9" y2="74"/>
</g>
<g>
	<line class="st4" x1="141.4" y1="74" x2="149.6" y2="74"/>
	<line class="st4" x1="152.6" y1="74" x2="153.8" y2="74"/>
	<line class="st4" x1="156.8" y1="74" x2="158.1" y2="74"/>
</g>
<g>
	<line class="st4" x1="110.5" y1="47.4" x2="110.5" y2="39.2"/>
	<line class="st4" x1="110.5" y1="36.2" x2="110.5" y2="34.9"/>
	<line class="st4" x1="110.5" y1="32" x2="110.5" y2="30.7"/>
</g>
<g>
	<line class="st4" x1="87.8" y1="51.9" x2="82" y2="46"/>
	<line class="st4" x1="79.9" y1="43.9" x2="79" y2="43"/>
	<line class="st4" x1="76.9" y1="40.9" x2="76" y2="40"/>
</g>
<g>
	<line class="st4" x1="132.2" y1="51.9" x2="138" y2="46"/>
	<line class="st4" x1="140.1" y1="43.9" x2="141" y2="43"/>
	<line class="st4" x1="143.1" y1="40.9" x2="144" y2="40"/>
</g>
<g>
	<line class="st4" x1="96.5" y1="45.7" x2="92.9" y2="38.3"/>
	<line class="st4" x1="91.6" y1="35.6" x2="91.1" y2="34.5"/>
	<line class="st4" x1="89.8" y1="31.8" x2="89.3" y2="30.7"/>
</g>
<g>
	<line class="st4" x1="81.7" y1="87.6" x2="74.3" y2="91.1"/>
	<line class="st4" x1="71.6" y1="92.4" x2="70.5" y2="93"/>
	<line class="st4" x1="67.8" y1="94.2" x2="66.6" y2="94.8"/>
</g>
<g>
	<line class="st4" x1="138.3" y1="60.5" x2="145.7" y2="56.9"/>
	<line class="st4" x1="148.4" y1="55.6" x2="149.5" y2="55.1"/>
	<line class="st4" x1="152.2" y1="53.8" x2="153.4" y2="53.3"/>
</g>
<g>
	<line class="st4" x1="81.2" y1="61.6" x2="73.6" y2="58.3"/>
	<line class="st4" x1="70.9" y1="57.2" x2="69.7" y2="56.7"/>
	<line class="st4" x1="67" y1="55.5" x2="65.9" y2="55"/>
</g>
<g>
	<line class="st4" x1="122.4" y1="45.2" x2="125.7" y2="37.6"/>
	<line class="st4" x1="126.9" y1="34.9" x2="127.4" y2="33.8"/>
	<line class="st4" x1="128.5" y1="31" x2="129" y2="29.9"/>
</g>
<polyline class="st4" points="105.6,35.4 110.5,30.5 115.4,35.4 "/>
<polyline class="st4" points="66.8,78.9 61.9,74 66.8,69.1 "/>
<polyline class="st4" points="153.2,78.9 158.1,74 153.2,69.1 "/>
<polyline class="st4" points="67.6,61.4 65.8,54.7 72.5,52.9 "/>
<polyline class="st4" points="75.7,46.8 75.9,39.8 82.8,40 "/>
<polyline class="st4" points="86.9,37 89.2,30.5 95.7,32.7 "/>
<polyline class="st4" points="152.1,59.5 153.8,52.8 147.1,51 "/>
<polyline class="st4" points="144.1,46.8 143.9,39.8 137,40 "/>
<polyline class="st4" points="131.5,36.2 129.3,29.6 122.7,31.9 "/>
<polyline class="st4" points="67.6,88.4 65.8,95.1 72.5,96.9 "/>
</svg>
