<?xml version="1.0" encoding="utf-8"?>
<!-- Generator: Adobe Illustrator 22.1.0, SVG Export Plug-In . SVG Version: 6.00 Build 0)  -->
<svg version="1.1" id="Layer_1" xmlns="http://www.w3.org/2000/svg" xmlns:xlink="http://www.w3.org/1999/xlink" x="0px" y="0px"
	 viewBox="0 0 220 155" style="enable-background:new 0 0 220 155;" xml:space="preserve">
<style type="text/css">
	.st0{fill:#0D5187;}
	.st1{fill:#67C9D5;}
	.st2{fill:#F0E8DD;}
	
		.st3{fill:none;stroke:#FFFFFF;stroke-width:2;stroke-linecap:round;stroke-linejoin:round;stroke-miterlimit:10;stroke-dasharray:4;}
	.st4{fill:none;stroke:#293A3F;stroke-width:2;stroke-linecap:round;stroke-linejoin:round;stroke-miterlimit:10;}
	.st5{fill:#ECDB6F;}
</style>
<rect class="st0" width="220" height="155"/>
<g>
	
		<rect x="139.5" y="102.1" transform="matrix(1 8.014245e-03 -8.014245e-03 1 0.927 -1.1602)" class="st1" width="11.5" height="26"/>
	<path class="st2" d="M125.8,100.1c-2.1-0.7-4.5-0.4-6.3,0.9l-7.8,5.3l-9.4-4.9c-2.1-1.1-4.7-1.1-6.6,0.1l-0.7,0.4l10.1,8.4
		l-0.7,0.2l-13.5-6.3c-2.1-1-4.7-0.9-6.6,0.4l-0.7,0.4l10.7,8.1l-0.2,0.1l-11.8-4.5c-3-1.1-6.3-0.4-8.5,1.9l-0.8,0.8l29.6,20.4
		c0.6,0.4,1.3,0.5,2,0.3l34.8-7.3l0.2-20.4L125.8,100.1z"/>
	<path class="st3" d="M80.9,101.8c-9.7-8.2-15.8-20.5-15.8-34.2c0-24.8,20.1-44.9,44.9-44.9s44.9,20.1,44.9,44.9
		c0,11.8-4.6,22.6-12.1,30.7"/>
	<path class="st4" d="M139.4,124.9l-34.8,7.3c-0.7,0.2-1.4,0.1-2-0.3L73,111.5l0.8-0.8c2.2-2.3,5.6-3,8.5-1.9l18.1,7"/>
	<path class="st4" d="M139.5,104.5l-13.8-4.5c-2.1-0.7-4.5-0.4-6.3,0.9l-17.8,12.2c-1.1,0.8-1.4,2.3-0.6,3.3l0,0
		c1.5,2.1,4.3,3,6.7,2l11.8-4.5"/>
	
		<rect x="139.5" y="102.1" transform="matrix(1 8.014245e-03 -8.014245e-03 1 0.927 -1.1602)" class="st4" width="11.5" height="26"/>
	<path class="st4" d="M94.7,113.5l-11.1-8.4l0.7-0.4c1.8-1.2,4.4-1.4,6.6-0.4l14.1,6.6"/>
	<path class="st4" d="M105.1,110.4L95,101.9l0.7-0.4c1.9-1.1,4.5-1.2,6.6-0.1l9.4,4.9"/>
	<g>
		<polygon class="st5" points="110,48.6 117.1,63 132.9,65.3 121.5,76.5 124.2,92.2 110,84.8 95.8,92.2 98.5,76.5 87.1,65.3 
			102.9,63 		"/>
		<polygon class="st4" points="110,48.6 117.1,63 132.9,65.3 121.5,76.5 124.2,92.2 110,84.8 95.8,92.2 98.5,76.5 87.1,65.3 
			102.9,63 		"/>
		<polyline class="st4" points="92.9,77.7 80.6,84.2 82.9,70.5 72.9,60.7 86.7,58.7 92.9,46.2 99.1,58.7 		"/>
		<polyline class="st4" points="127.1,77.7 139.4,84.2 137.1,70.5 147.1,60.7 133.3,58.7 127.1,46.2 120.9,58.7 		"/>
	</g>
</g>
</svg>
