<?xml version="1.0" encoding="utf-8"?>
<!-- Generator: Adobe Illustrator 22.1.0, SVG Export Plug-In . SVG Version: 6.00 Build 0)  -->
<svg version="1.1" id="Layer_1" xmlns="http://www.w3.org/2000/svg" xmlns:xlink="http://www.w3.org/1999/xlink" x="0px" y="0px"
	 viewBox="0 0 220 155" style="enable-background:new 0 0 220 155;" xml:space="preserve">
<style type="text/css">
	.st0{fill:#F09622;}
	.st1{fill:#67C9D5;}
	.st2{fill:none;stroke:#FFFFFF;stroke-width:2;stroke-linecap:round;stroke-linejoin:round;stroke-miterlimit:10;}
	.st3{fill:none;stroke:#293A3F;stroke-width:2;stroke-linecap:round;stroke-linejoin:round;stroke-miterlimit:10;}
</style>
<rect class="st0" width="220" height="155"/>
<g>
	<path class="st1" d="M84.6,55.2c-7.8,19.5,3.7,64.7,25.1,64.7c15.4,0,35.7-30,30.3-59.6C135.5,35.2,95.4,28.2,84.6,55.2z"/>
	<g>
		<path class="st2" d="M158,51.8V29.5h-22.3"/>
		<path class="st2" d="M84.3,29.5H62v22.3"/>
		<path class="st2" d="M135.7,125.5H158v-22.3"/>
		<path class="st2" d="M62,103.2v22.3h22.3"/>
	</g>
	<g>
		<path class="st3" d="M115.3,58c-2.9-0.7-6.2-1-8.8,0.5c-2.3,1.4-3.7,3.9-4.6,6.5c-1.3,3.6-1.9,7.3-3,10.9c-1,3.6-2.5,7.3-5.2,9.9
			c-1.6,1.6-3.5,2.8-5.4,4"/>
		<path class="st3" d="M98.2,54.6c-2.1,0.9-3.5,2.9-4.2,5c-0.8,2.1-1,4.4-1.4,6.6c-1,4.9-3.1,9.6-6,13.6"/>
		<path class="st3" d="M132.8,65.6c-5.5-9.6-16.1-16-27.1-16.4"/>
		<path class="st3" d="M86.9,63.7c3.1-26.5,36.5-27.3,48.1-6.9"/>
		<path class="st3" d="M133.3,75.4c-3.6-3.6-7.7-6.7-12.2-9.1c-2.7-1.4-5.9-2.6-8.6-1.3c-2.3,1.1-3.6,3.7-3.5,6.3s1.4,4.9,3.2,6.7
			c1.8,1.8,3.9,3.2,6.1,4.5c4.1,2.5,8.4,4.7,12.7,6.9"/>
		<path class="st3" d="M133.3,83c-6.1-2.4-11.7-6.1-16.4-10.7"/>
		<path class="st3" d="M130,96.7c-6.4-2.5-12.8-5.1-18.3-9.2c-2-1.4-4.1-3.1-6.5-2.8c-1.6,0.2-3,1.3-4,2.5s-1.8,2.7-2.7,4
			c-1.6,2.3-3.8,4.3-6.3,5.7"/>
		<path class="st3" d="M97.4,104.7c2.9-2.4,3.8-6.9,7.1-8.6c2.3-1.2,5.2-0.6,7.6,0.3c4.2,1.5,8,3.9,11.2,7"/>
		<path class="st3" d="M117.3,110.9c-1-1-2.1-2.1-3.1-3.1c-0.9-0.9-1.8-1.9-3-2.3s-2.7-0.4-3.6,0.5c-0.4,0.4-0.6,0.9-0.9,1.4
			c-1,1.6-2.5,3-4.2,3.7"/>
	</g>
	<path class="st3" d="M84.6,55.2c-7.8,19.5,3.7,64.7,25.1,64.7c15.4,0,35.7-30,30.3-59.6C135.5,35.2,95.4,28.2,84.6,55.2z"/>
</g>
</svg>
