<?xml version="1.0" encoding="utf-8"?>
<!-- Generator: Adobe Illustrator 22.1.0, SVG Export Plug-In . SVG Version: 6.00 Build 0)  -->
<svg version="1.1" id="Layer_1" xmlns="http://www.w3.org/2000/svg" xmlns:xlink="http://www.w3.org/1999/xlink" x="0px" y="0px"
	 viewBox="0 0 220 155" style="enable-background:new 0 0 220 155;" xml:space="preserve">
<style type="text/css">
	.st0{fill:#F09622;}
	.st1{fill:#FFFFFF;stroke:#293A3F;stroke-width:2;stroke-linecap:round;stroke-linejoin:round;stroke-miterlimit:10;}
	.st2{fill:#ECDB6F;}
	.st3{fill:#EF816B;}
	.st4{fill:none;stroke:#FFFFFF;stroke-width:2;stroke-linecap:round;stroke-linejoin:round;stroke-miterlimit:10;}
	.st5{fill:none;stroke:#293A3F;stroke-width:2;stroke-linecap:round;stroke-linejoin:round;stroke-miterlimit:10;}
</style>
<rect class="st0" width="220" height="155"/>
<g>
	<path class="st1" d="M94.5,94.9c1.9-1.9,1.9-5.1,0-7c-1.9-1.9-5.1-1.9-7,0c1.9-1.9,1.9-5.1,0-7l0,0c-0.1-0.1-0.2-0.2-0.3-0.3
		l-4.8,4.8l-6.4,21.1l21.1-6.4l4.8-4.8c-0.1-0.1-0.2-0.2-0.3-0.3C99.6,93,96.5,93,94.5,94.9z"/>
	<path class="st2" d="M94.5,94.9c1.9-1.9,5.1-1.9,7,0c0.1,0.1,0.2,0.2,0.3,0.3L133.1,64c1-1,1-2.7,0-3.8l-10.9-10.9
		c-1-1-2.7-1-3.8,0l-4.9,4.9L87.2,80.6c0.1,0.1,0.2,0.2,0.3,0.3l0,0c1.9,1.9,1.9,5.1,0,7c1.9-1.9,5.1-1.9,7,0
		C96.5,89.8,96.5,93,94.5,94.9L94.5,94.9z"/>
	<path class="st3" d="M117.8,49.9c1.8-1.8,3.5-1.8,5,0l9.6,9.6c1.9,2.2,1.5,3.2,0,5.2l-4.2,4.5l-14.7-15L117.8,49.9z"/>
	<path class="st4" d="M75.8,106.6c-6.7-7.8-10.7-18-10.7-29.1c0-24.8,20.1-44.9,44.9-44.9s44.9,20.1,44.9,44.9s-20.1,44.9-44.9,44.9
		"/>
	<path class="st5" d="M128.4,68.7"/>
	<line class="st5" x1="113.6" y1="54.2" x2="128.3" y2="68.8"/>
	<line class="st5" x1="108.8" y1="59" x2="123.5" y2="73.7"/>
	<line class="st5" x1="110.3" y1="57.4" x2="120.9" y2="67.9"/>
	<line class="st5" x1="117.3" y1="61.1" x2="125.4" y2="69.2"/>
	<path class="st5" d="M94.5,94.9c1.9-1.9,5.1-1.9,7,0c0.1,0.1,0.2,0.2,0.3,0.3L133.1,64c1-1,1-2.7,0-3.8l-10.9-10.9
		c-1-1-2.7-1-3.8,0l-4.9,4.9L87.2,80.6c0.1,0.1,0.2,0.2,0.3,0.3l0,0c1.9,1.9,1.9,5.1,0,7c1.9-1.9,5.1-1.9,7,0
		C96.5,89.8,96.5,93,94.5,94.9L94.5,94.9z"/>
	<path class="st5" d="M94.5,94.9c1.9-1.9,1.9-5.1,0-7c-1.9-1.9-5.1-1.9-7,0c1.9-1.9,1.9-5.1,0-7l0,0c-0.1-0.1-0.2-0.2-0.3-0.3
		l-4.8,4.8l-6.4,21.1l21.1-6.4l4.8-4.8c-0.1-0.1-0.2-0.2-0.3-0.3C99.6,93,96.5,93,94.5,94.9z"/>
	<line class="st5" x1="78.7" y1="97.3" x2="85.1" y2="103.7"/>
	<line class="st5" x1="112.9" y1="76.6" x2="119.6" y2="69.8"/>
	<line class="st5" x1="94.5" y1="94.9" x2="109.6" y2="79.8"/>
	<line class="st5" x1="96" y1="79.5" x2="110.5" y2="64.9"/>
	<line class="st5" x1="87.5" y1="87.9" x2="92.3" y2="83.1"/>
	<g>
		<line class="st4" x1="98.4" y1="42.6" x2="98.4" y2="50.3"/>
		<line class="st4" x1="102.2" y1="46.4" x2="94.5" y2="46.4"/>
	</g>
	<g>
		<line class="st4" x1="132.2" y1="100.5" x2="132.2" y2="108.2"/>
		<line class="st4" x1="136.1" y1="104.4" x2="128.4" y2="104.4"/>
	</g>
	<line class="st4" x1="123.5" y1="85.5" x2="142.1" y2="85.5"/>
	<line class="st4" x1="128.4" y1="80.6" x2="149.7" y2="80.6"/>
	<line class="st4" x1="133.2" y1="75.6" x2="150.7" y2="75.6"/>
	<line class="st4" x1="94.5" y1="62.7" x2="77.5" y2="62.7"/>
	<line class="st4" x1="89.9" y1="67.5" x2="72.7" y2="67.5"/>
	<line class="st4" x1="85.1" y1="72.2" x2="72.7" y2="72.2"/>
</g>
</svg>
